<svg width="320" height="276" viewBox="0 0 320 276" fill="none" xmlns="http://www.w3.org/2000/svg">
<path d="M358.832 123.003C358.907 124.317 358.956 125.642 358.981 126.976L357.981 126.995C357.994 127.656 358 128.319 358 128.985C358 129.653 357.994 130.321 357.981 130.989L358.981 131.008C358.956 132.357 358.906 133.706 358.831 135.055L357.833 135C357.759 136.333 357.661 137.667 357.54 139L358.536 139.091C358.413 140.434 358.267 141.777 358.097 143.118L357.105 142.992C356.937 144.317 356.746 145.641 356.533 146.964L357.52 147.123C357.306 148.453 357.068 149.782 356.809 151.109L355.827 150.917C355.571 152.229 355.293 153.539 354.993 154.847L355.967 155.071C355.666 156.383 355.344 157.693 355.001 159L354.034 158.746C353.694 160.04 353.333 161.332 352.952 162.621L353.911 162.904C353.529 164.195 353.127 165.481 352.706 166.764L351.756 166.452C351.338 167.723 350.901 168.991 350.445 170.255L351.385 170.594C350.928 171.861 350.451 173.123 349.956 174.381L349.026 174.015C348.536 175.26 348.027 176.5 347.501 177.735L348.421 178.127C347.893 179.367 347.346 180.603 346.782 181.832L345.873 181.415C345.316 182.631 344.741 183.842 344.149 185.046L345.047 185.487C344.452 186.698 343.84 187.903 343.212 189.102L342.327 188.638C341.706 189.823 341.069 191.001 340.416 192.174L341.29 192.66C340.633 193.838 339.961 195.01 339.274 196.175L338.413 195.666C337.732 196.819 337.036 197.966 336.325 199.105L337.173 199.634C336.46 200.778 335.731 201.914 334.988 203.043L334.152 202.493C333.415 203.613 332.664 204.725 331.898 205.828L332.72 206.398C331.952 207.506 331.17 208.606 330.374 209.697L329.566 209.108C328.776 210.192 327.972 211.267 327.155 212.334L327.949 212.942C327.129 214.012 326.296 215.074 325.451 216.126L324.671 215.5C323.831 216.546 322.978 217.583 322.112 218.61L322.877 219.254C322.008 220.286 321.127 221.308 320.234 222.32L319.484 221.658C318.596 222.664 317.696 223.661 316.785 224.647L317.52 225.325C316.604 226.317 315.676 227.297 314.738 228.267L314.019 227.572C313.086 228.537 312.142 229.491 311.187 230.434L311.889 231.145C310.929 232.094 309.957 233.031 308.976 233.957L308.29 233.229C307.313 234.15 306.326 235.06 305.329 235.958L305.998 236.701C304.995 237.605 303.982 238.496 302.959 239.375L302.307 238.617C301.288 239.492 300.26 240.356 299.223 241.206L299.857 241.98C298.813 242.836 297.759 243.679 296.697 244.509L296.081 243.721C295.023 244.548 293.955 245.362 292.879 246.163L293.476 246.965C292.392 247.771 291.3 248.564 290.199 249.342L289.622 248.526C288.525 249.302 287.42 250.063 286.308 250.81L286.865 251.641C285.743 252.394 284.613 253.133 283.476 253.857L282.939 253.013C281.806 253.734 280.666 254.44 279.519 255.13L280.034 255.987C278.876 256.684 277.71 257.366 276.537 258.032L276.043 257.162C274.876 257.824 273.703 258.471 272.523 259.1L272.994 259.983C271.8 260.62 270.6 261.241 269.393 261.844L268.946 260.95C267.746 261.55 266.539 262.134 265.328 262.7L265.751 263.606C264.525 264.178 263.294 264.733 262.057 265.269L261.659 264.352C260.427 264.886 259.19 265.402 257.948 265.899L258.32 266.827C257.066 267.33 255.806 267.814 254.542 268.278L254.197 267.339C252.936 267.803 251.671 268.246 250.402 268.67L250.719 269.619C249.438 270.046 248.153 270.454 246.864 270.841L246.577 269.884C245.29 270.27 244 270.636 242.707 270.981L242.964 271.947C241.659 272.296 240.35 272.623 239.038 272.928L238.812 271.954C237.505 272.258 236.196 272.54 234.885 272.8L235.08 273.781C233.754 274.044 232.426 274.284 231.095 274.502L230.934 273.515C229.612 273.731 228.289 273.924 226.964 274.094L227.091 275.086C225.751 275.258 224.408 275.406 223.065 275.53L222.973 274.534C221.641 274.658 220.307 274.757 218.973 274.831L219.029 275.83C217.681 275.905 216.332 275.956 214.983 275.981L214.964 274.981C214.296 274.994 213.627 275 212.959 275C212.297 275 211.636 274.995 210.976 274.985L210.961 275.985C209.632 275.966 208.307 275.926 206.987 275.868L207.032 274.869C205.711 274.81 204.395 274.732 203.084 274.635L203.01 275.632C201.686 275.533 200.367 275.416 199.053 275.279L199.157 274.284C197.842 274.147 196.533 273.99 195.23 273.814L195.097 274.805C193.779 274.628 192.468 274.431 191.163 274.215L191.326 273.228C190.025 273.012 188.73 272.778 187.442 272.524L187.249 273.505C185.943 273.249 184.645 272.973 183.353 272.678L183.576 271.703C182.291 271.409 181.014 271.097 179.744 270.766L179.492 271.734C178.205 271.398 176.925 271.044 175.654 270.672L175.935 269.712C174.669 269.341 173.412 268.951 172.163 268.544L171.853 269.494C170.59 269.082 169.336 268.652 168.091 268.203L168.43 267.262C167.189 266.815 165.956 266.35 164.733 265.867L164.365 266.797C163.13 266.309 161.905 265.803 160.688 265.28L161.084 264.361C159.873 263.84 158.671 263.302 157.479 262.745L157.057 263.652C155.853 263.09 154.659 262.51 153.476 261.914L153.926 261.021C152.75 260.428 151.584 259.818 150.429 259.191L149.952 260.07C148.784 259.437 147.627 258.786 146.481 258.119L146.984 257.255C145.846 256.592 144.718 255.912 143.602 255.216L143.073 256.065C141.947 255.363 140.832 254.644 139.729 253.91L140.283 253.077C139.186 252.347 138.101 251.601 137.029 250.838L136.449 251.654C135.368 250.885 134.298 250.101 133.241 249.301L133.844 248.504C132.794 247.709 131.756 246.899 130.73 246.073L130.103 246.852C129.07 246.02 128.049 245.173 127.041 244.311L127.691 243.551C126.691 242.695 125.703 241.824 124.729 240.939L124.057 241.679C123.075 240.786 122.107 239.879 121.152 238.958L121.847 238.239C120.9 237.324 119.966 236.396 119.047 235.453L118.331 236.152C117.405 235.202 116.493 234.239 115.595 233.262L116.332 232.585C115.441 231.616 114.565 230.633 113.704 229.637L112.948 230.291C112.08 229.287 111.228 228.271 110.391 227.242L111.166 226.611C110.336 225.589 109.521 224.556 108.721 223.509L107.926 224.117C107.121 223.063 106.331 221.998 105.558 220.92L106.37 220.337C105.602 219.267 104.851 218.186 104.115 217.093L103.286 217.651C102.546 216.552 101.822 215.44 101.114 214.317L101.96 213.784C101.259 212.671 100.575 211.547 99.9065 210.412L99.0446 210.919C98.3722 209.776 97.7165 208.622 97.0781 207.457L97.9549 206.977C97.3229 205.824 96.7078 204.661 96.1101 203.487L95.219 203.941C94.6174 202.76 94.0331 201.569 93.4666 200.367L94.371 199.941C93.8101 198.751 93.2667 197.552 92.7411 196.344L91.824 196.742C91.2958 195.528 90.7855 194.304 90.2934 193.071L91.2222 192.7C90.7346 191.478 90.265 190.248 89.8138 189.008L88.8741 189.35C88.4213 188.106 87.9868 186.854 87.5709 185.593L88.5206 185.28C88.109 184.032 87.7157 182.775 87.3412 181.511L86.3824 181.795C86.0061 180.525 85.6485 179.246 85.3099 177.96L86.277 177.706C85.9428 176.436 85.6274 175.16 85.331 173.876L84.3566 174.101C84.0587 172.81 83.7798 171.512 83.5203 170.207L84.5011 170.012C84.245 168.724 84.008 167.43 83.7903 166.129L82.804 166.295C82.5856 164.99 82.3865 163.679 82.207 162.361L83.1979 162.226C83.0204 160.924 82.8622 159.615 82.7235 158.301L81.7291 158.406C81.5905 157.092 81.4714 155.773 81.372 154.449L82.3692 154.374C82.2708 153.063 82.1919 151.748 82.1326 150.427L81.1336 150.472C81.0745 149.152 81.0348 147.827 81.0149 146.498L82.0148 146.483C82.0049 145.823 82 145.162 82 144.5C82 143.838 82.0049 143.177 82.0148 142.517L81.0149 142.502C81.0348 141.173 81.0745 139.848 81.1336 138.528L82.1326 138.573C82.1919 137.252 82.2708 135.937 82.3692 134.626L81.372 134.551C81.4714 133.227 81.5905 131.908 81.7291 130.594L82.7235 130.699C82.8622 129.385 83.0204 128.076 83.1978 126.774L82.207 126.639C82.3865 125.321 82.5856 124.01 82.804 122.705L83.7903 122.871C84.008 121.57 84.245 120.276 84.501 118.988L83.5202 118.793C83.7798 117.488 84.0587 116.19 84.3566 114.9L85.331 115.124C85.6274 113.84 85.9428 112.564 86.2769 111.294L85.3099 111.04C85.6484 109.754 86.006 108.475 86.3824 107.205L87.3412 107.489C87.7157 106.225 88.1089 104.968 88.5205 103.721L87.5709 103.407C87.9868 102.146 88.4213 100.894 88.8741 99.65L89.8138 99.9921C90.265 98.7525 90.7346 97.5217 91.2222 96.3L90.2934 95.9293C90.7855 94.6961 91.2958 93.4721 91.824 92.2576L92.741 92.6564C93.2667 91.4478 93.8101 90.2486 94.371 89.0592L93.4666 88.6327C94.0331 87.4314 94.6174 86.2401 95.219 85.059L96.11 85.5129C96.7078 84.3394 97.3229 83.1761 97.9549 82.0233L97.078 81.5426C97.7165 80.378 98.3721 79.2241 99.0446 78.0813L99.9065 78.5884C100.575 77.4531 101.259 76.3287 101.96 75.2156L101.114 74.6827C101.822 73.5598 102.546 72.4483 103.286 71.3486L104.115 71.9069C104.851 70.814 105.602 69.7327 106.37 68.6635L105.558 68.0804C106.331 67.0024 107.121 65.9366 107.926 64.8832L108.721 65.4906C109.521 64.4444 110.336 63.4105 111.166 62.3894L110.391 61.7585C111.228 60.7291 112.08 59.7126 112.948 58.7092L113.704 59.3633C114.565 58.3673 115.441 57.3844 116.332 56.415L115.595 55.7385C116.493 54.7615 117.405 53.798 118.331 52.8484L119.047 53.5467C119.966 52.6043 120.9 51.6758 121.847 50.7614L121.152 50.0419C122.107 49.1206 123.075 48.2135 124.057 47.321L124.729 48.061C125.703 47.1758 126.691 46.3049 127.691 45.4489L127.041 44.6891C128.049 43.8269 129.07 42.9796 130.103 42.1475L130.73 42.9265C131.756 42.1013 132.794 41.2912 133.844 40.4965L133.241 39.699C134.298 38.8991 135.368 38.1148 136.449 37.3464L137.029 38.1616C138.101 37.3995 139.186 36.6531 140.283 35.9227L139.729 35.0904C140.832 34.3557 141.947 33.6371 143.073 32.9349L143.602 33.7836C144.718 33.0877 145.846 32.4082 146.984 31.7453L146.481 30.8811C147.627 30.2138 148.784 29.5633 149.952 28.9298L150.429 29.8088C151.584 29.1819 152.75 28.5719 153.926 27.9791L153.476 27.0861C154.659 26.4895 155.853 25.9102 157.057 25.3485L157.479 26.2547C158.671 25.6985 159.873 25.1597 161.084 24.6385L160.688 23.72C161.905 23.1966 163.13 22.6908 164.365 22.2031L164.733 23.1332C165.956 22.6501 167.188 22.1848 168.43 21.7376L168.091 20.7968C169.336 20.3482 170.59 19.9177 171.853 19.5056L172.163 20.4563C173.412 20.0486 174.669 19.6591 175.935 19.2881L175.654 18.3285C176.925 17.9558 178.205 17.6016 179.492 17.2663L179.744 18.234C181.014 17.9032 182.291 17.5909 183.576 17.2974L183.353 16.3225C184.645 16.0275 185.943 15.7514 187.249 15.4945L187.442 16.4757C188.73 16.2222 190.025 15.9875 191.326 15.772L191.163 14.7854C192.468 14.5693 193.779 14.3722 195.097 14.1946L195.23 15.1856C196.533 15.0099 197.842 14.8533 199.157 14.7161L199.053 13.7215C200.366 13.5844 201.686 13.4665 203.01 13.3681L203.084 14.3654C204.395 14.268 205.711 14.1899 207.032 14.1313L206.987 13.1323C208.307 13.0737 209.632 13.0344 210.961 13.0148L210.976 14.0147C211.636 14.0049 212.297 14 212.959 14C213.62 14 214.28 14.0036 214.941 14.0107L214.951 13.0108C216.28 13.0252 217.608 13.0539 218.935 13.0969L218.903 14.0964C220.223 14.1392 221.544 14.1962 222.863 14.2673L222.916 13.2688C224.243 13.3403 225.568 13.426 226.892 13.5258L226.817 14.523C228.135 14.6224 229.452 14.7358 230.767 14.8632L230.863 13.8679C232.186 13.9961 233.506 14.1384 234.825 14.2946L234.707 15.2877C236.02 15.4433 237.33 15.6128 238.638 15.7962L238.777 14.8058C240.093 14.9905 241.407 15.1891 242.717 15.4016L242.557 16.3887C243.862 16.6003 245.163 16.8256 246.46 17.0647L246.642 16.0813C247.95 16.3224 249.254 16.5774 250.555 16.8462L250.352 17.8255C251.647 18.0932 252.937 18.3746 254.223 18.6696L254.447 17.695C255.743 17.9925 257.035 18.3039 258.321 18.629L258.076 19.5985C259.359 19.9226 260.636 20.2604 261.908 20.6118L262.174 19.648C263.455 20.0021 264.731 20.37 266.001 20.7516L265.713 21.7092C266.98 22.0903 268.242 22.4851 269.497 22.8935L269.806 21.9425C271.071 22.354 272.328 22.7792 273.579 23.2181L273.247 24.1616C274.496 24.6 275.738 25.052 276.972 25.5176L277.325 24.582C278.57 25.0519 279.807 25.5355 281.036 26.0328L280.661 26.9598C281.887 27.4557 283.104 27.9652 284.312 28.4882L284.709 27.5706C285.932 28.0998 287.145 28.6429 288.35 29.1998L287.93 30.1075C289.13 30.6622 290.32 31.2306 291.5 31.8126L291.943 30.9158C293.137 31.5047 294.322 32.1076 295.495 32.7242L295.03 33.6095C296.202 34.2247 297.362 34.8537 298.511 35.4963L298.999 34.6235C300.16 35.2724 301.309 35.9352 302.447 36.6118L301.936 37.4712C303.074 38.148 304.2 38.8386 305.313 39.543L305.848 38.6978C306.973 39.4092 308.085 40.1344 309.184 40.8736L308.626 41.7034C309.723 42.441 310.806 43.1923 311.876 43.9574L312.458 43.144C313.541 43.919 314.611 44.7081 315.666 45.511L315.061 46.3068C316.111 47.1062 317.147 47.9193 318.168 48.7462L318.797 47.9691C319.832 48.8076 320.852 49.6601 321.856 50.5266L321.203 51.2836C322.202 52.1465 323.186 53.0233 324.154 53.9138L324.831 53.1781C325.809 54.0786 326.77 54.9931 327.714 55.9215L327.013 56.6345C327.955 57.5607 328.879 58.5007 329.786 59.4545L330.511 58.7657C331.427 59.7299 332.325 60.7082 333.205 61.7004L332.456 62.3637C333.33 63.3498 334.186 64.3498 335.022 65.3634L335.793 64.7271C336.64 65.7534 337.466 66.7937 338.273 67.8479L337.479 68.4556C338.279 69.5013 339.059 70.5606 339.818 71.6334L340.635 71.0557C341.402 72.1403 342.149 73.2388 342.874 74.351L342.037 74.8972C342.755 75.9989 343.452 77.1142 344.127 78.2428L344.985 77.7295C345.667 78.8688 346.326 80.0218 346.963 81.1882L346.085 81.6673C346.715 82.8205 347.322 83.9871 347.906 85.1667L348.802 84.7231C349.39 85.9111 349.955 87.1124 350.496 88.3267L349.583 88.7338C350.117 89.9329 350.628 91.145 351.115 92.3697L352.044 92.0003C352.533 93.2309 352.999 94.4744 353.439 95.7305L352.496 96.0616C352.929 97.2972 353.339 98.5453 353.724 99.8056L354.68 99.5135C355.067 100.781 355.43 102.062 355.768 103.354L354.8 103.607C355.13 104.871 355.436 106.147 355.716 107.434L356.693 107.221C356.975 108.512 357.232 109.815 357.463 111.13L356.478 111.303C356.705 112.593 356.908 113.895 357.085 115.207L358.076 115.073C358.252 116.378 358.404 117.694 358.53 119.02L357.535 119.115C357.659 120.419 357.759 121.734 357.834 123.059L358.832 123.003Z" stroke="black" stroke-opacity="0.26" stroke-width="2" stroke-dasharray="4 4"/>
<path d="M-4 0H110C220.457 0 310 89.5431 310 200V216H-4V0Z" fill="#ECFFEC"/>
</svg>
