<svg width="13" height="12" viewBox="0 0 13 12" fill="none" xmlns="http://www.w3.org/2000/svg">
<path d="M12.981 2.23719C12.6477 2.68175 12.2449 3.06954 11.788 3.38559C11.788 3.50172 11.788 3.61785 11.788 3.74043C11.7917 5.84935 10.9493 7.87152 9.44972 9.35363C7.95013 10.8357 5.91879 11.6538 3.81108 11.6244C2.59256 11.6285 1.38965 11.3502 0.296572 10.8115C0.237633 10.7858 0.199618 10.7274 0.199842 10.6631V10.5921C0.199842 10.4995 0.274908 10.4244 0.367507 10.4244C1.56528 10.3849 2.72032 9.96962 3.66921 9.23727C2.58506 9.21544 1.6096 8.57319 1.16069 7.58564C1.13801 7.5317 1.14507 7.46984 1.17932 7.4224C1.21356 7.37496 1.27004 7.3488 1.32835 7.35338C1.65785 7.3865 1.99064 7.35583 2.30854 7.26306C1.11173 7.01462 0.212466 6.02104 0.0837668 4.80496C0.0791926 4.74662 0.105336 4.69012 0.152752 4.65586C0.200168 4.6216 0.262002 4.61453 0.315918 4.63722C0.637089 4.77893 0.983793 4.85358 1.3348 4.85658C0.286112 4.16827 -0.166852 2.85909 0.232085 1.66944C0.273265 1.55384 0.372199 1.46844 0.492531 1.44463C0.612863 1.42082 0.736843 1.4621 0.818911 1.55331C2.23405 3.05944 4.17848 3.95694 6.24221 4.05657C6.18935 3.84563 6.16335 3.62886 6.16483 3.4114C6.18413 2.27114 6.88965 1.25538 7.95109 0.839656C9.01252 0.423929 10.2198 0.690512 11.0077 1.5146C11.5448 1.41228 12.0641 1.23187 12.549 0.97911C12.5845 0.956935 12.6295 0.956935 12.665 0.97911C12.6872 1.01464 12.6872 1.05971 12.665 1.09524C12.4302 1.63306 12.0334 2.08414 11.5301 2.38558C11.9709 2.33446 12.4039 2.23049 12.8198 2.0759C12.8548 2.05206 12.9009 2.05206 12.9359 2.0759C12.9652 2.08932 12.9872 2.11499 12.9959 2.14607C13.0046 2.17714 12.9991 2.21048 12.981 2.23719Z" fill="#707070"/>
</svg>
